<svg width="19" height="19" viewBox="0 0 19 19" fill="none" xmlns="http://www.w3.org/2000/svg">
<path d="M13.1145 11.726H12.3015L12.0133 11.4482C13.0219 10.2749 13.6291 8.75176 13.6291 7.09481C13.6291 3.40013 10.6342 0.405273 6.93954 0.405273C3.24485 0.405273 0.25 3.40013 0.25 7.09481C0.25 10.7895 3.24485 13.7843 6.93954 13.7843C8.59648 13.7843 10.1196 13.1771 11.2929 12.1686L11.5708 12.4567V13.2698L16.7166 18.4053L18.25 16.8718L13.1145 11.726ZM6.93954 11.726C4.37693 11.726 2.30832 9.65742 2.30832 7.09481C2.30832 4.5322 4.37693 2.46359 6.93954 2.46359C9.50214 2.46359 11.5708 4.5322 11.5708 7.09481C11.5708 9.65742 9.50214 11.726 6.93954 11.726Z" fill="#13337E"/>
</svg>
